<svg width="72" height="73" viewBox="0 0 72 73" fill="none" xmlns="http://www.w3.org/2000/svg">
<g clip-path="url(#clip0_1_31)">
<path d="M35.5913 0.40329C16.0068 0.40329 0.0756836 16.5572 0.0756836 36.4122C0.0756836 56.2672 16.0068 72.4211 35.5913 72.4211C55.1758 72.4211 71.107 56.2672 71.107 36.4122C71.107 16.5572 55.1758 0.40329 35.5913 0.40329ZM35.5913 69.4204C17.6398 69.4204 3.03527 54.613 3.03527 36.4122C3.03527 18.2114 17.6398 3.40399 35.5913 3.40399C53.5428 3.40399 68.1474 18.2114 68.1474 36.4122C68.1474 54.613 53.5428 69.4204 35.5913 69.4204Z" fill="white"/>
<path d="M49.7107 35.1506L28.9933 21.6473C28.5395 21.347 27.9528 21.3308 27.4846 21.5916C27.0076 21.8553 26.7128 22.3595 26.7128 22.9089V49.9156C26.7128 50.465 27.0076 50.9691 27.4846 51.2328C27.7042 51.3545 27.9499 51.416 28.1927 51.416C28.4701 51.416 28.7505 51.3368 28.9933 51.1771L49.7107 37.6738C50.1327 37.3984 50.3899 36.9221 50.3899 36.4122C50.3899 35.9023 50.1327 35.4262 49.7107 35.1506ZM29.6724 47.1668V25.6576L46.173 36.4122L29.6724 47.1668Z" fill="white"/>
</g>
<defs>
<clipPath id="clip0_1_31">
<rect width="71.0313" height="72.0178" fill="white" transform="translate(0.0756836 0.40329)"/>
</clipPath>
</defs>
</svg>
